<svg xmlns="http://www.w3.org/2000/svg" width="900" height="600" viewBox="0 0 10368 6912"><path fill="#006c35" d="M0 0h10368v6912H0z"/><path fill="#fff" d="M6500.993 4752c-17 0-63 46.99-63 63.99 0 13 23.007 39 42.007 54v39.015H3240c115 115 286 117.99 630 117.99h2610v39.015c-20 16-42.007 41-42.007 54 0 17 46 63.99 63 63.99 14 0 39.012-24.99 55.012-45.99h144a60 40 0 0 0 110.993 0h171c21 24 48.993 24.997 65.993 24.997 49 0 80.01-21.012 80.01-136.012 0-108-48.005-117.99-166.005-117.99h-439.988v-39.015c19-15 41.985-41 41.985-54 0-17-46-63.99-63-63.99zm21.015 274.995h439.988c-8 30-8 53.015 0 75.015h-150.998a60 40 0 0 0-110.993 0h-144c-8-11-22.997-28-33.998-36zm369.784-1651.842 364.357-140.271c-6.421 17.184-14.841 36.835-36.438 45.511l-336.067 128.673c-7.391 2.948-14.722 6.159-22.779 7.718 7.391-11.767 14.358-23.678 21.475-35.518 1.517-3.307 5.788-4.626 9.453-6.111zm-378.599-161.892c26.184 15.86 49.98 33.988 66.67 53.516 30.895 37.651 38.862 86.469 19.689 128.818-1.667 3.475-5.18 6.063-8.179 8.845 5.937-23.439 7.693-48.267-1.606-71.297-12.751-33.456-41.618-61.546-80.145-77.988.657-14.631 2.623-29.392 3.574-41.891zm-1003.04-20.372c16.296-10.905 38.923-11.959 59.309-11.935 20.477 1.126 42.135 1.846 60.188 10.498 8.542 7.86.423 17.16-8.329 22.096-35.5 20.274-74.606 37.867-103.414 64.493-7.815 6.878-3.756 17.591 6.12 21.617 14.932 5.92 32.229 6.207 48.645 5.872 38.983-1.677 76.42-13.348 109.043-29.981 9.086-4.577 17.235-10.282 26.625-14.524a405.25 405.25 0 0 1-67.638 52.389c-21.022 12.486-44.709 23.319-71.002 26.578-20.687 1.391-42.951.599-60.824-8.652-19.901-9.324-29.229-30.197-21.87-47.429 4.453-9.682 12.691-17.879 21.354-25.427 22.354-18.741 49.676-33.073 76.939-46.902-18.476-.695-37.195-1.485-55.552.287-11.994.958-20.052 8.077-28.563 13.853-2.574-11.238-2.635-24.564 8.967-32.832zm-731.596-28.207c16.206-6.279 38.56-5.369 51.342 5.56 10.693 10.017 11.844 23.798 11.057 36.332-8.572 9.035-18.446 17.352-25.627 27.201-15.023 2.205-30.804.264-45.496 3.762-7.391 3.403-17.053 5.464-20.599 12.318-4.635 8.845-2.483 18.669-.515 27.824 7.632 31.971 21.749 63.39 21.022 96.318-.818 11.552-1.786 23.535-8.694 33.983-1.606-18.31-9.753-35.614-15.659-53.229-11.148-32.091-19.991-65.019-21.295-98.378-1.454-12.847 7.875-23.894 17.296-33.576 13.904-15.386 38.832-19.891 60.973-23.223-5.755-4.195-12.268-9.035-20.778-8.101-11.905 1.367-19.961 9.251-26.504 16.513-1.181-16.03 4.364-34.963 23.476-43.303zm1060.953-6.207c1.061-.862 2.454-1.198 4.18-.982-6.3 5.704-9.754 12.893-14.6 19.365-13.782 20.611-29.715 42.493-26.05 66.745.392 11.384 8.481 26.098 25.292 26.002 8.209-3.235 10.33-11.528 14.449-17.495-.515 17.759-3.817 39.328-24.898 49.489-17.508-2.229-30.653-14.523-31.349-28.399-3.574-41.965 18.628-83.351 52.977-114.725zm-3140.35-236.424c10.026-14.14 19.446-29.55 36.985-38.897-21.293 34.007-43.436 68.471-52.736 106.023-3.09 14.356-4.635 30.941 7.088 43.282 9.117 7.74 23.747 9.155 36.228 6.758 18.932-3.307 27.747-18.982 35.561-31.42 5.998 9.275-.213 19.293-2.969 28.544-7.845 19.581-17.204 40.789-38.862 53.516-16.63 10.065-40.468 6.039-56.462-2.828-21.083-13.037-21.566-36.692-17.871-55.84 8.329-38.751 29.865-74.725 53.037-109.14zm1543.514-151.704c6.178-9.299 18.296-20.323 33.168-15.674 17.871 4.267 39.136 15.482 36.288 32.305-4.785 5.728-10.935 10.64-16.356 15.985-5.785-8.676-12.268-19.771-25.837-21.617-17.658 4.577-28.231 18.597-33.804 31.946-11.723 29.167-14.327 59.963-17.599 90.277-4.271 1.798-8.542 3.571-12.903 5.201.121-27.896-7.544-57.518-31.199-79.135-5.362-7.167-17.265-3.571-25.323-7.022-15.023-4.265-20.477-17.232-24.112-28.327-1.816-7.502-5.058-16.513 1.272-23.199 13.299-3.02 23.717 6.207 33.198 12.031 24.414 18.358 41.286 41.988 55.099 66.05 5.814-26.866 11.964-54.426 28.109-78.824zm2539.741-73.626c18.478-5.033 37.924 1.581 53.037 10.017 25.231 14.762 44.921 34.823 60.127 56.368 8.118 12.486 17.387 26.171 14.115 40.695-1.938 9.778-2.908 20.274-10.299 28.616-8.179 8.005-23.535 7.189-33.834 2.421-11.753-5.273-22.959-11.287-35.257-15.745-16.63 35.757-51.675 63.917-89.662 86.255-25.716 15.578-53.916 28.375-82.478 40.334-17.63 7.526-37.137 11.552-56.037 16.44-18.871 4.243-38.075 9.826-58.007 8.269 12.571-.575 22.506-7.023 33.107-11.624 55.249-25.427 109.376-52.774 158.536-85.197 26.11-17.879 52.797-36.5 70.394-60.322-11.358-1.942-22.749-3.619-34.229-4.842-9.238-21.258-9.329-47.261 10.601-64.852-9.935-6.039-11.087-16.992-12.751-26.098-1.419-7.932 1.942-17.997 12.634-20.731m49.556 52.654c3.757 15.745 4.876 31.803 5.18 47.811 15.569 1.774 31.048 6.662 46.92 5.249 8.088-.934 7.784-9.347 3.301-13.35-14.752-16.08-35.227-28.183-55.4-39.711m-52.736 25.692c7.967 11.672 26.02 14.643 40.772 18.382 3.029-7.526 6.936-15.41 5.451-23.391-5.332-8.245-12.571-19.029-25.959-18.982-11.571 4.698-16.145 14.955-20.264 23.99zm-1021.925-100.535c9.177-9.395 24.718-13.973 39.377-14.332 10.178-.072 15.114 8.58 17.447 15.17 4.423 15.555 5.21 32.474-4.362 46.974l15.054 8.58c-1.333 9.946-2.272 19.964-2.515 29.981-10.117-4.289-17.901-11.119-26.565-16.871-26.959 36.788-66.366 68.687-115.464 86.711-25.959 10.353-55.674 14.883-84.574 12.031 54.734-15.482 107.895-37.819 147.605-72.092a218.179 218.179 0 0 0 35.349-38.632c-7.693-6.495-16.903-12.055-22.899-19.653-4.783-12.15-8.297-26.672 1.547-37.865m15.023 11.983c3.969 8.891 11.571 16.226 19.476 23.126 3.331-7.694 7.693-16.057 2.817-23.966-7.481-1.149-14.993-.501-22.294.84zm-3069.995 96.298 330.165-162.922c-3.151 18.957-11.358 40.886-34.44 50.377l-305.689 149.789a54.66 54.66 0 0 1-8.27 2.708c6.484-13.204 11.421-26.888 18.235-39.951zm2299.423-288.264c8.451-9.682 17.992-18.957 28.684-27.201-7.875 14.14-3.181 29.573.484 44.026 4.149 15.817 9.753 31.347 16.024 46.733 4.392 11.6 21.204 15.674 34.653 17.951 8.057 2.036 17.932-2.708 14.811-9.995-7.422-18.789-16.903-37.028-27.747-54.715l11.903-35.494 15.419.096c4.453 21.976 17.689 41.916 29.867 61.664.03 21.354-1.575 43.619-11.148 63.869-6.391 14.356-27.775 18.813-45.041 17.663-22.929-3.499-38.135-19.148-51.586-32.905-6.695 18.046-25.625 32.043-48.04 37.698-18.962 5.512-40.83-2.493-51.008-15.721-11.148-14.666-13.268-32.378-12.751-49.155 1-23.99 6.877-51.959 34.077-66.363l7.635.021-4.907 1.702c-16.539 23.942-17.569 54.018-2.878 78.679 4.271 7.789 15.084 13.398 26.02 11.576 13.63-2.612 24.414-10.282 33.713-18.19.332-23.991.21-48.006 1.816-71.947zm-2167.007-50.113c24.657-4.219 47.102 7.981 64.638 20.228 23.474 18.142 43.042 39.759 55.431 63.893 3.756 7.285 5.421 15.242 4.028 23.08-1.788 10.402-2.817 21.809-11.178 30.461-9.813 7.165-25.292 5.608-35.711.096-10.36-5.416-21.174-10.282-32.441-14.404-16.903 35.398-51.433 63.39-89.084 85.729-29.563 17.687-61.792 32.546-95.113 45.32-23.869 7.165-48.283 13.325-73.061 18.214-9.874 2.133-20.143 1.918-30.26 1.702 5.937-1.102 12.268-1.461 17.689-3.882 54.22-24.229 107.102-50.52 156.388-80.67 33.289-21.21 66.336-43.665 89.958-72.161-11.48-2.061-23.02-4.002-34.744-4.889-9.238-21.306-9.511-47.236 9.965-65.116-9.39-6.495-10.753-17.184-12.45-26.339-1.784-8.872 3.941-19.392 15.937-21.261m46.041 53.037c4.362 15.889 4.785 32.211 5.603 48.387 16.417 1.461 32.955 7.622 49.494 4.409 7.663-3.403 2.272-11.191-1.727-15.17-15.113-14.691-34.257-26.411-53.369-37.627m-40.316 6.83c-5.393 6.327-11.662 13.612-10.814 21.593 9.541 9.49 25.655 13.445 40.225 15.531 1.424-4.554 3.121-9.011 4.24-13.588 3.997-9.3-5.089-17.639-12.359-24.11-5.421-5.201-16.599-5.369-21.293.575zm1828.933-78.202c16.085 10.616 25.868 25.884 36.742 39.807 27.836 38.753 51.555 79.253 74.517 119.923 50.373 87.305 83.508 180.513 101.748 275.297 5.15 29.383 10.421 58.933 9.359 88.694 3.06 59.075 11.934 119.473 43.102 173.85 22.931 36.94 61.934 69.721 92.476 93.685 14.554 7.956 20.716 6.08 24.552 2.83 2.373-2.01 1.437-27.922 6.283-40.096 6.905-19.987 22.719-37.003 39.528-52.51 18.811-16.296 40.104-31.251 65.244-41.101 50.342-20.204 102.533-37.386 155.24-53.301 39.68-11.648 80.027-21.977 121.285-29.477l-531.232 3.738 26.959-102.021c18.78-19.508 42.405-35.542 65.73-51.479 101.533-66.29 218.752-115.347 337.467-159.279-13.904-17.232-33.228-33.289-36.288-54.451-7.179-29.718 8.421-59.099 28.049-83.835 11.632-14.044 22.506-29.383 40.407-39.042 17.962-9.85 42.266-10.503 61.913-3.499 65.826 23.383 133.726 64.553 183.923 101.523 5.028 4.026 11.48 7.502 14.631 12.751l-35.742 90.809c-52.34 9.251-104.955 18.094-155.966 31.396 5.18 25.572 14.418 53.468.545 78.25-4.846-.527-11.419-1.198-12.237-5.896-1.968-21.497-15.054-41.054-28.502-59.363-65.094 20.276-130.038 41.246-191.403 67.92-49.465 21.737-99.623 45.319-136.274 80.096h816.784c-17.447 30.341-36.106 60.274-53.886 90.492-178.257 34.368-356.181 71.103-529.106 119.95-72.574 21.042-145.094 44.194-209.458 78.513-6.664 4.026-10.512 11.456-5.664 17.495 9.996 12.151 28.231 17.16 43.528 24.086 33.259 14.57 70.122 22.503 106.347 31.013l77.842 18.238-5.301 109.119c-21.235 0-42.892-2.972-64.246-4.457-41.831-3.93-84.3-6.568-124.647-16.729-54.947-13.757-104.444-39.879-143.213-73.481-42.558-36.236-73.332-80.213-95.386-126.302-30.108-63.869-46.89-142.103-52.706-209.951-2.665-.287-3.307 13.218-5.881 13.003-7.541 29.91-16.412 56.458-29.042 85.314-2.394 6.854-8.754 12.079-14.358 17.399-40.529 37.244-83.752 72.645-128.942 106.313-46.254 34.103-94.476 66.746-146.575 95.171-54.795 29.742-114.071 56.488-179.62 67.727-35.227 5.776-75.272 6.878-106.14-9.993-34.47-18.645-51.281-51.047-60.368-82.107-31.41 18.861-63.065 37.458-95.416 55.314-29.199 15.506-58.278 31.899-91.721 41.246-83.604 24.565-170.592 40.671-257.136 57.279l-186.648 31.778 174.317-77.193c156.388-70.792 310.443-145.186 457.5-227.632 20.052-75.997 52.431-152.45 115.16-213.442l3.181-.695c-4.998 8.412-7.391 17.639-12.541 26.002-37.803 52.389-64.669 110.294-74.184 170.276 66.941-38.514 132.275-78.893 193.765-122.805 37.984-26.938 73.666-55.889 106.258-86.946 8.965-8.796 21.144-16.344 24.535-27.896 1.484-7.517.646-12.155-4.752-27.738-38.012-83.13-91.965-186.851-127.794-259.945l36.015-110.965c16.508 8.604 27.261 22.12 39.014 34.343 23.99 27.872 46.555 56.536 66.819 86.227 11.328 16.321 13.479 35.277 17.63 53.301-16.265-11.576-27.595-27.273-45.648-37.171a37.28 37.28 0 0 0 3.301 7.716c28.563 44.601 48.101 92.655 60.763 141.592 7.815 29.07 11.206 58.885 9.028 88.604-1.636 32.211-7.179 65.212-25.868 94.279-16.599 25.812-38.923 48.938-62.247 71.131-79.057 73.405-171.718 136.677-265.823 197.599.122 3.547 5.21 4.506 8.24 6.447 33.682 16.633 75.82 14.955 113.434 9.778 28.352-5.201 57.551-9.155 83.508-20.132 68.124-28.209 127.52-67.537 184.863-107.606 75.184-54.139 145.998-112.015 213.546-172.073l-69.879-189.575c-12.965-32.929-25.019-66.146-40.529-98.378-25.716-42.515-50.433-85.536-72.848-129.178 9.052-33.339 20.441-66.316 30.104-99.581m685.191 171.479c-8.24 2.588-15.145 9.778-11.692 16.992 1.272 5.464 8.815 7.357 12.782 11.407 16.508 15.17 32.137 30.964 46.497 47.477 35.833-10.306 72.212-19.244 108.376-28.712-26.927-20.347-56.824-39.711-92.75-48.914-20.447-5.488-43.317-4.816-63.217 1.75zm792.716-43.809 330.587-162.729c-3.121 16.801-9.208 35.206-26.656 46.278l-321.53 157.766c4.574-14.091 11.783-27.536 17.599-41.316zm-556.73-203.806c10.208-4.674 25.171-4.337 32.076 4.195 9.511 11.36 12.055 26.218 6.907 39.256-9.724 25.86-31.199 47.836-54.613 66.962-28.471 22-62.548 42.276-102.837 47.236 6.755-6.614 16.63-10.282 25.323-15.027 24.958-13.301 48.979-27.969 69.94-45.104 10.996-10.065 22.899-20.946 24.869-34.726.757-11.552-12.48-21.425-25.989-23.343-19.689 2.756-31.957 16.224-46.436 25.692-3.453-8.363 5.785-14.236 11.237-20.371 17.355-16.681 34.832-34.582 59.52-44.769zm-1437.241-55.983 100.985-49.778c-3.362 16.992-10.33 36.668-31.199 45.128l-223.358 109.119c8.36-13.541 16.599-27.225 25.807-40.406l127.765-64.062zm3250.4-105.857c49.192 26.195 89.751 63.583 111.709 107.371 21.627 42.444 21.447 90.616 4.03 133.968-2.363 5.009-7.422 8.772-11.662 12.798 7.574-29.43 10.178-60.322-.362-89.51-14.902-46.254-57.521-84.672-109.346-107.917 2.572-18.861 3.149-37.843 5.632-56.704zm-1185.37 19.006c8.45-8.173 16.69-16.489 25.959-24.086-8.815 16.296-2.09 34.007 2.09 50.52 4.755 15.122 9.329 30.389 16.539 44.912 8.997 9.323 24.778 14.067 39.316 13.709 6.756-.021 9.965-6.279 7.632-10.761-7.118-18.214-16.356-35.901-26.868-53.037 2.029-12.582 7.936-24.685 12.086-36.955l15.297 1.102c3.362 22.313 18.114 42.084 29.685 62.119-.484 16.13-1.908 32.354-5.846 48.219-2.969 11.049-8.149 23.846-22.263 28.831-12.025 3.691-26.111 5.752-38.257 1.294-17.841-6.255-30.503-18.573-41.469-30.892-6.936 17.422-24.566 31.227-46.193 37.34-17.78 6.471-39.407-.311-50.676-12.151-12.933-13.973-15.206-31.971-15.419-48.77.727-16.13 2.333-32.738 11.115-47.549 5.694-9.946 14.509-19.723 28.049-23.439-18.053 23.607-20.052 53.876-6.725 79.232 3.847 7.189 11.753 14.14 22.294 14.38 16.024-.647 28.474-9.778 39.074-18.43-.243-20.587.909-41.126.94-61.713.764-4.646-1.025-10.232 3.641-13.874zm-2672.971-167.09c40.256 20.635 72.303 52.031 87.625 88.148 12.45 29.191 11.571 61.306.484 90.664-1.484 4.77-6.029 8.339-10.087 11.839 8.179-27.704 7.3-57.734-7.361-84.022-14.932-27.153-42.315-49.537-74.754-64.013 1.758-14.186 2.637-28.422 4.091-42.61zm1299.197-30.82c9.117-8.938 17.265-19.22 29.381-25.739-7.997 9.61-4.635 21.473-2.726 32.067 4.483 19.772 11.148 39.232 19.023 58.334 2.485 7.981 12.873 11.384 21.445 14.452 7.754 2.301 17.083 4.433 24.958 1.367 4.967-3.451 2.635-9.347.879-13.612-7.574-16.729-15.327-33.504-25.989-49.179l12.237-36.476 16.084.886c2.454 22.457 18.053 42.06 29.29 62.216-.392 17.184-1.968 34.51-6.664 51.335-2.665 9.923-8.451 20.394-20.295 25.381-13.6 4.267-29.806 6.255-43.102.335-15.419-6.998-27.747-17.663-37.408-29.311-7.754 17.855-26.382 31.995-49.009 37.819-15.568 4.626-34.077-.311-44.709-10.065-13.539-11.119-17.174-27.225-18.476-42.06-1.061-19.078.879-38.753 10.299-56.512 5.393-10.306 15.023-19.388 27.778-24.397-12.511 19.653-18.932 42.515-11.934 64.228 3.09 11.384 8.24 25.908 24.261 29.477 17.295 1.75 31.048-8.652 42.195-17.663 2.086-24.254.784-48.652 2.481-72.88zm1339.411-30.724c58.248-19.94 116.493-40.072 176.08-57.327-1.819 10.712-6.725 22.936-19.902 28.041l-252.345 88.383c-16.448 7.189-33.35 14.571-46.163 25.643 9.147 7.981 22.838 10.977 35.197 14.57l-.121 23.246c-17.508-3.355-35.045-8.412-48.617-18.07.788-11.001.545-22.072 2.454-33.001 1.968-9.923 14.78-14.595 24.049-19.987 41.047-20.226 85.485-35.637 129.372-51.502zm-2621.204-96.484 2.394 1.894c-5.271 5.297-2.574 12.294-1.727 18.382 2.878 13.109 6.997 26.098 12.691 38.632 1.877 5.608 9.238 8.292 15.508 10.161 5.482.91 14.358 3.044 16.63-2.756-3.756-13.588-12.782-25.715-18.357-38.753 2.635-7.526 3.878-15.602 8.389-22.575a244.06 244.06 0 0 1 9.208.311c3.029 14.619 12.632 27.489 19.537 40.982-.392 13.877-.94 28.279-7.544 41.318-4.119 8.82-17.235 11.168-27.775 11.049-15.419-1.726-25.535-12.031-34.652-20.994-5.877 13.085-20.901 23.319-38.409 25.117-14.722.599-27.2-8.796-31.078-19.508-5.119-14.163-4.544-29.383-.393-43.643 3.242-9.971 9.572-20.755 22.597-24.589-10.269 13.733-12.812 30.628-7.057 45.942 2.242 6.327 6.391 14.259 15.842 15.17 10.479.145 18.266-6.183 25.746-11.097 1.938-15.674-.395-31.492 2.059-47.14 3.789-6.734 11.363-11.718 16.39-17.901zm482.702-27.01c6.421 1.367 11.057 5.512 16.356 8.459 32.108 20.922 58.853 48.124 71.607 79.736 11.934 28.616 11.206 60.035.575 88.819-1.454 4.985-5.451 9.011-8.967 13.181l-1.12-2.133c7.754-26.601 6.604-55.241-6.936-80.552-14.631-27.728-42.043-50.687-75.117-65.14.849-14.138 2.242-28.277 3.605-42.37zm291.299-24.684c8.149-15.698 29.502-28.878 51.766-25.86 11.118 1.894 18.902 9.634 22.868 17.663 7.784 16.536 8.936 34.559 6.209 51.959 13.661 12.941 28.502 26.051 34.226 42.827 10.601 22.072 1.12 45.631-7.906 66.938-11.541 28.185-33.471 53.78-37.56 83.738-1.424 7.406 2.181 15.482 11.753 18.046 15.388-3.595 17.78-18.07 20.93-28.615 4.815-.91 12.359-1.319 14.024 3.499 2.635 13.325-4.755 26.146-10.723 38.298-5.391 9.227-12.873 20.132-26.716 22.192-11.057 1.605-19.507-6.063-23.93-13.085-12.602-20.228-8.633-44.218 1.908-64.42 16.417-32.187 38.105-64.589 36.106-100.3.059-15.17-7.997-29.646-20.869-40.695-19.234 41.101-50.342 78.154-86.174 111.324-18.537 18.214-45.162 29.335-70.576 40.43-22.747 9.323-45.828 18.503-70.062 25.236 46.646-26.554 91.387-55.578 130.097-89.296 31.926-28.352 61.307-60.322 73.152-97.708l-.788-2.108c-17.265-8.82-38.014-16.609-47.01-32.187-3.815-8.868-3.329-18.837-.725-27.872m17.295 4.505c-4.453 2.277-1.393 6.638 2.242 8.125 10.875 5.009 22.051 9.658 33.35 14.067-.273-9.011 1.788-20.204-8.179-26.626-8.633-5.705-20.447-.767-27.413 4.433zm1844.041-20.06c5.816-8.029 14.811-17.927 28.14-16.536 14.145 2.517 27.988 8.532 36.681 17.927 4.422 5.872 8.088 14.835.243 20.012-4.119 3.187-7.057 8.58-12.146 10.186-7.118-7.357-12.632-20.491-27.02-20.108-18.023 5.249-27.988 19.699-33.381 33.432-11.176 28.327-13.448 58.189-16.961 87.526-3.574 2.924-8.389 4.553-12.691 6.638 0-29.742-8.724-61.592-35.651-83.566-12.964-1.271-28.383-2.493-35.651-12.438-8.846-12.679-15.206-28.327-9.086-42.611 13.721-2.133 24.839 6.015 34.168 12.775 24.657 17.903 40.587 41.604 54.978 65.164 6.083-26.749 12.201-54.118 28.377-78.396zm-3507.455 9.658c7.513-10.498 15.811-21.306 28.837-28.041-20.778 35.47-44.952 70.703-52.674 109.838-2.424 12.798-2.515 27.465 7.845 38.226 9.694 9.658 27.322 9.826 41.043 6.447 15.358-4.864 22.506-17.903 29.685-28.76 3.212.072 3.878 3.068 5.421 4.864-8.088 25.14-15.902 52.413-39.862 71.47-22.263 18.621-66.184 9.035-77.117-14.091-7.936-16.633-5.302-35.039-.636-52.006 11.452-38.2 33.139-73.937 57.462-107.944zm2089.099-39.855c39.923 21.593 72.666 52.75 87.929 89.372 7.574 19.22 10.36 39.711 7.422 59.747-2.181 14.595-5.119 29.742-15.449 42.3-1.454-3.834-.484-7.764.423-11.576 6.875-28.974 1.029-60.035-17.962-85.536-15.659-21.258-38.832-39.088-66.092-50.856.516-14.523 2.302-28.974 3.726-43.449zm557.13-19.508c15.751 6.471 26.05 18.286 36.197 29.359 24.748 28.664 45.767 60.852 64.638 92.13 1.843 4.129 1.937 9.255 3.242 23.006-11.389-9.803-24.717-19.269-41.649-22.145-2.999 5.249-2.969 10.904-.423 16.272l68.154 159.563c13.57 34.919 25.474 70.792 25.928 107.557.94 34.127-6.421 68.207-19.142 100.749-12.782 30.58-32.38 60.897-65.064 81.077-26.899 17.28-62.792 24.445-97.016 21.905-41.77-2.469-81.33-18.407-110.317-42.084-15.48-11.672-28.049-25.451-39.832-39.496l4.514-.84-4.937.479c-26.171-34.894-45.587-72.977-56.793-112.596 1-5.129-11.358-4.698-10.117.407-15.963 57.783-41.438 114.773-83.604 164-24.626 28.279-56.49 53.516-96.023 68.447-43.072 16.081-93.809 17.135-139.155 6.83-45.557-10.402-81.664-38.873-101.23-72.424-28.352-48.076-32.684-102.504-29.563-154.773 6.089-42.228 19.416-83.524 32.441-124.671 4.392-12.654 8.3-26.267 2.635-39.112l-7.209-2.972c-6.089 3.139-12.359 6.231-17.113 10.64-33.38 29.143-52.34 66.386-67.486 103.32-11.449 29.742-20.386 60.107-26.382 90.858-7.966 48.604-20.173 97.784-48.435 141.827-15.327 23.415-38.348 47.74-73.03 53.109-32.137 3.403-66.488-4.577-90.025-22.505-28.837-21.33-41.467-52.342-49.07-82.156-12.116-53.516-8.36-108.373-.757-162.106 5.089-33.121 12.359-66.002 21.414-98.572l9.025-.527c-11.994 54.907-20.264 110.654-18.175 166.468 1.877 31.803 6.604 64.204 22.929 93.636 11.087 20.156 29.896 38.921 56.037 47.597 24.687 7.956 55.158 9.394 78.272-2.469 23.899-12.414 35.106-34.582 43.981-55.121 17.478-45.463 25.201-92.745 38.923-138.93 14.388-46.878 35.075-92.482 60.459-136.345 14.54-25.572 30.564-50.712 51.13-73.626 18.266-20.394 35.045-42.78 60.973-57.758l7.693.311c4.755 15.362-.849 31.275-1.697 46.83-1.606 25.692-13.418 49.826-20.204 74.725-8.42 28.472-15.629 57.183-22.838 85.868-11.148 41.078-19.084 84.409-5.059 125.729 10.601 32.402 38.862 60.993 77.028 75.755 24.809 10.329 52.645 15.578 80.575 16.368 39.255 3.14 80.301-.599 115.404-15.555 42.315-17.447 72.273-49.082 91.691-82.874 18.993-33.768 29.836-70.343 32.985-107.177.423-73.17-5.998-147.75-37.621-217.133-4.028-9.586-9.299-19.533-6.997-29.814 4.998-28.208 16.903-55.361 30.865-81.506.879-2.996 5.421-3.211 8.149-4.746 14.932 35.301 29.442 70.841 38.5 107.44 11.419 47.573 17.992 95.765 24.748 143.845 5.362 34.319 6.936 69.168 17.81 102.816 9.025 27.92 23.081 55.241 45.162 78.368 26.838 29.502 67.123 51.407 111.924 59.771 38.348 7.047 79.301-2.012 111.561-18.957 16.962-9.155 34.561-24.589 28.927-42.06-53.704-111.78-97.867-226.236-141.754-340.58-2.908-9.442-8.45-18.478-9.359-28.184 5.696-30.242 19.084-59.24 34.168-87.257zm-1500.561 93.947 55.431-98.24c36.258 66.002 65.76 134.306 87.87 204.117 2.604 14.116-2.665 28.303-2.029 42.491-12.66-17.783-27.2-34.679-40.468-52.174 3.422 32.019 9.633 63.869 13.387 95.89 25.383 189.112 47.707 378.493 66.759 568.088 21.84-12.51 38.5-30.461 47.859-50.425 12.207-22.48 25.383-44.839 43.224-64.923 6.695-7.213 15.538-16.464 28.504-14.236 7.331.334 10.814 6.567 11.54 11.624 3.242 17.807-13.782 33.169-10.875 50.832.788 14.5 15.114 26.938 32.137 31.324 29.442 8.412 61.429 4.65 91.624 1.271 13.63-2.373 30.653-4.409 37.287-15.602-7.088-17.975-14.963-35.757-23.899-53.205 12.751-25.715 27.322-50.88 40.62-76.453 3.422-6.039 5.725-12.702 11.358-17.783 9.663 29.239 12.086 59.58 15.994 89.538 4.028 48.435-5.785 98.717-36.319 141.329-16.448 21.809-41.012 41.629-73.061 47.932-27.927 5.297-58.612 2.876-83.937-8.149a116.68 116.68 0 0 1-59.884-61.401c-15.872 28.855-36.742 56.129-63.306 79.591l8.906 112.306c1.756 41.773-11.783 82.709-27.443 122.252-7.602 16.992-15.084 34.079-24.475 50.52-83.478 107.944-193.824 203.564-326.225 274.958-86.662 47.093-182.53 83.614-283.182 107.606-52.614 12.079-106.406 21.93-161.142 25.093-56.492.624-113.827-5.153-166.63-21.545-49.554-15.29-92.839-43.138-120.618-79.135-97.593 7.981-195.765 12.366-293.906 12.558 87.536-24.828 174.199-51.646 259.403-81.174-48.047-194.918 66.326-408.249 150.906-521.957-58.751 96.134-96.741 193.708-105.38 292.791-4.816 67.056 1.272 137.465 40.769 198.152 105.014-38.849 207.244-82.515 305.267-131.5 83.115-42.132 163.416-88.1 236.385-140.797 34.592-25.309 68.213-51.718 96.623-81.534 8.389-7.813 4.301-18.957 1.575-27.848-6.33-14.931-13.509-29.622-20.809-44.241-49.676 15.913-102.592 26.818-156.477 26.626-29.381.671-59.611-3.762-84.937-16.01-21.718-10.593-37.832-27.992-44.374-47.501-9.056-25.596-5.119-52.606.304-78.416 8.602-37.362 25.989-74.725 59.035-103.002 23.202-19.747 53.916-34.943 87.966-38.921 38.5.144 74.754 15.003 102.229 35.637 34.984 26.243 58.853 60.274 77.213 95.192 34.257-15.793 67.184-34.486 92.691-58.764 25.019-20.587 50.767-41.604 82.723-55.433 7.966-3.619 21.718-7.622 27.018.838 5.785 12.558.273 26.363-3.604 38.849-10.299 18.214 2.151 38.921 17.538 52.844 21.415 19.124 56.611 20.97 86.448 16.681l-94.32-762.459c-.636-8.527-5.3-16.316-9.299-24.106m-425.699 780.431c-15.327 5.225-34.501 12.965-36.773 27.561 3.605 11.097 20.082 14.524 32.472 16.896 39.832 6.111 81.234 5.992 121.04-.192-.727-1.126-2.242-3.355-2.999-4.481-20.748-18.597-47.193-34.606-78.635-39.304-11.54-1.367-23.808-3.978-35.106-.479m260.832 103.818c4.119 51.79-5.059 104.157-25.686 153.356-7.966 17.088-14.601 35.181-29.624 49.417-73.879 78.126-169.052 141.951-269.341 197.979-89.358 49.251-183.708 92.938-282.331 129.441 16.842 6.495 34.53 11.719 52.918 14.811 49.252 8.652 100.111 4.002 149.449-1.629 154.477-18.31 299.934-71.656 425.211-144.564 83.056-48.339 158.721-104.633 224.751-167.304 22.081-22.145 49.253-43.785 54.643-72.928l-18.053-148.179c-34.348 10.905-76.872 13.468-108.043-4.746-37.833-22.599-52.221-61.161-58.187-96.774-32.625 34.68-71.003 66.123-115.708 91.121zm1891.142-954.612c8.572-11.264 16.751-23.702 31.38-30.796-21.265 33.697-42.953 67.967-52.523 105.166-3.726 16.082-4.998 35.66 11.692 47.716 9.692 3.738 20.869 5.968 31.44 3.02 19.325-3.427 28.352-19.34 35.894-32.233 2.09 5.177 3.483 10.544 1.241 15.865-6.877 22.384-16.024 45.824-36.712 62.767-23.294 19.747-70.274 8.388-79.146-16.919-7.784-22.959-.667-47.022 7.875-69.216 12.422-29.719 29.626-58.071 48.86-85.37zm-2454.426 63.102 60.642-95.551c32.714 67.607 58.612 137.299 76.576 208.285 1.181 12.917-3.271 25.788-4.724 38.632-14.78-15.817-23.656-34.871-38.71-50.664 8.209 53.325 11.148 107.08 16.508 160.62l17.204 207.76c44.861-5.944 85.174-26.914 112.257-55.529 40.739-42.851 58.823-96.774 63.942-149.547-.334-67.8-4.907-136.774-31.835-201.67-4.755-13.278-13.509-26.122-13.329-40.192 3.212-26.147 14.267-51.215 25.959-75.638 2.969-5.704 4.907-12.965 13.63-14.666 13.299 32.522 27.048 65.019 35.894 98.523 13.722 52.485 20.356 105.926 27.988 159.134 5.089 32.211 6.604 64.948 16.903 96.512 13.357 42.445 40.438 83.808 85.026 110.792 33.53 20.132 76.361 33.913 119.011 28.567 30.078-4.289 60.52-13.757 81.575-31.922 9.511-8.052 16.054-19.844 11.994-30.868-43.072-87.74-78.242-177.734-113.797-267.507l-35.985-93.802c-3.392-7.933 1.031-16.106 2.665-23.942 7.483-23.918 17.174-47.621 30.564-69.859 14.57 5.536 24.021 16.488 33.53 26.387 28.684 32.69 51.553 68.303 72.574 104.371-1 4.601-1.968 9.227-2.756 13.877-10.661-10.474-24.353-19.868-41.497-22.528-2.726 5.129-2.604 10.736-.243 15.938l58.853 136.532c16.508 40.622 36.35 99.678 35.227 124.913-3.47 35.441-9.754 82.432-23.299 115.465-14.902 29.359-40.856 64.422-76.206 80.552-30.321 14.428-67.759 16.656-101.926 11.336-44.982-7.117-83.567-30.125-111.198-58.454-38.831-39.927-62.67-87.907-76.783-136.698l-8.481.264c-13.207 49.083-33.289 97.424-64.307 141.35-27.806 39.28-66.245 76.405-119.255 95.143l25.594 364.689c.97 59.987-2.09 119.95-5.846 179.863-.059 8.149-4.362 15.697-7.572 23.319-10.39 26.002-21.384 51.862-33.076 77.552-1.847 4.289-4.24 8.484-7.663 12.175-1.515-114.531-13.782-228.779-23.565-343l-26.382-301.756c-42.437-.743-86.144-10.568-117.463-34.151-36.499-26.578-55.129-64.899-64.033-102.719-7.875-33.504-9.542-67.848-6.239-101.758 7.27-44.288 21.597-87.595 35.258-130.878 1.877-7.74 3.242-15.865 1.031-23.656-.848-2.828-1.667-6.183-5.816-6.974-6.361-.647-11.087 3.116-15.388 6.159-23.808 18.214-39.376 41.773-52.977 65.355-25.777 48.723-40.952 100.659-49.222 152.976-6.847 34.488-16.842 68.829-33.198 101.35-12.994 24.158-29.199 49.034-57.369 64.18-24.051 13.109-55.856 11.504-82.175 3.978-33.319-9.778-57.036-33.408-69.637-59.005-21.9-44.002-23.325-92.171-21.99-138.834 3.12-54.69 12.933-109.092 28.049-162.487l8.572-1.367c-12.237 61.257-22.203 123.379-16.417 185.476 2.817 26.914 8.876 54.091 23.416 78.727 12.359 21.042 34.047 39.951 62.761 46.83 24.414 5.944 53.341 5.464 74.117-7.526 22.597-14.308 33.289-36.668 41.558-57.901 19.446-53.804 26.747-109.859 46.889-163.516 19.537-52.606 46.102-103.631 78.968-151.898 19.054-25.02 39.65-49.489 63.579-71.781 7.088-5.848 14.206-14.163 25.474-14.259 6.178 3.139 3.969 10.017 4.119 14.931-3.151 24.206-3.453 48.962-12.602 72.375-16.721 48.052-27.988 97.162-40.256 146.002-8.512 38.034-10.783 78.658 7.602 115.133 13.539 27.824 41.709 50.401 75.695 62.959 18.476 6.902 38.439 11.121 58.643 13.42l-35.349-407.011c-2.637-21.113-.879-42.898-11.269-62.885zm4499.608.527 53.462-102.864c28.231 73.599 55.794 147.419 78.812 222.137 3.453 12.869 7.966 25.643 9.663 38.753-2.394 10.378-6.391 20.563-6.725 31.227l-30.382-45.871 45.676 573.244c5.362 61.424 13.208 122.729 16.054 184.273 5.21 114.006.182 230.48-43.587 340.076-16.448 39.615-37.378 78.223-63.973 114.269-35.742 46.59-88.81 83.331-147.183 111.559-103.955 49.489-222.936 75.23-341.733 91.121-6.725 1.942-9.45-4.243-13.268-7.047 105.984-40.383 207.88-87.837 302.993-142.67 47.556-28.184 94.113-57.877 134.126-92.773 45.859-40.861 80.449-90.063 96.172-143.458 17.235-53.684 11.298-109.548 7.512-164.194l-32.714-377.753-48.587-582.251c-3.422-13.637-14.175-25.332-19.142-38.609-1.334-3.257 1.756-6.181 2.815-9.178zm-268.46 33.314c61.944-51.455 122.01-104.322 181.531-157.579 2.637 47.86-28.474 91.86-63.215 129.247-18.597 21.737-44.83 38.01-68.425 56.081-11.297 8.101-22.263 16.44-33.107 24.876 3.121 12.798 7.875 25.403 9.633 38.394-.909 12.055-3.362 24.038-5.18 36.045-13.357-16.584-22.899-35.087-38.166-50.616 6.725 54.283 9.995 108.808 14.57 163.233l33.167 479.511c-.605 4.122 3.969 6.734 6.905 9.658 44.073 38.777 87.966 77.698 129.216 118.388 32.411 34.127 63.094 69.403 89.114 106.866 34.077 49.034 61.065 102.145 69.031 158.125 4.332 35.205 2.181 71.539-12.298 105.255-25.517-92.385-72.467-176.387-127.194-234.648-46.041-49.633-96.401-98.261-147.234-144.854l9.844 171.023c2.695 73.55-.727 147.128-4.666 220.609.03 13.925-7.906 26.65-11.994 39.951-11.844 29.863-21.384 60.442-36.559 89.392-2.424-67.871-5.332-135.813-10.512-203.613l-27.867-364.261c-1.302-9.562-.636-19.316-2.938-28.712-33.442-30.941-69.547-60.035-104.474-89.897-61.52-50.856-123.677-101.233-188.196-149.693l36.347 380.58c4.907 57.614 11.389 115.229 12.086 173.014.879 50.257.243 100.535-1.181 150.771.182 31.706.727 64.469-13.479 94.618-21.022 37.34-58.734 68.519-104.199 87.761-35.5 14.907-75.635 22.84-115.797 23.104-27.109.479-54.068-5.225-78.028-15.027-41.952-18.717-71.878-50.64-91.143-85.01-13.205-23.655-22.686-48.651-27.806-74.221-2.969-11.192-6.118-24.134-18.75-31.131-10.056-5.369-22.081-1.078-31.805 2.517-23.656 9.971-46.434 22-63.549 38.561-55.735 53.06-82.241 120.787-98.838 187.439-8.118 28.758-20.991 57.35-43.588 81.098-16.387 16.919-39.785 33.122-67.486 33.552-21.695.337-42.619-6.974-61.974-14.546-42.831-17.879-72.542-50.658-90.232-85.653-4.728-9.351-10.499-17.129-19.775-50.263-10.002-35.725-13.456-89.987-9.578-145.207 1.877-5.345-5.119-7.285-8.965-10.257-15.266-10.353-21.506-26.794-21.295-42.276-.424-56.823 9.996-114.628 40.225-166.613 24.505-42.876 61.216-80.31 96.957-117.6 3.361-4.026 9.299-7.238 10.935-11.935-22.263-20.108-45.769-39.376-69.517-58.381-13.539-12.39-30.017-22.457-43.345-34.967l-148.575-130.139 12.298 191.413c3.06 59.099 8.238 118.174 7.179 177.347.213 52.748-2.786 105.449-5.512 158.125-.152 13.133-6.845 25.357-11.085 37.867-11.935 30.844-22.719 62.048-37.198 92.247-2.695-24.972-1.059-50.113-3.06-75.106-5.482-124.692-17.81-249.1-26.565-373.654l-21.96-285.893-99.867-95.91c-37.984-37.915-75.939-76.094-107.739-117.483-45.648-64.995-96.897-128.099-160.172-183.319-3.605-2.684-2.485-6.686-2.454-10.113l6.148-107.198c45.043 23.199 87.996 48.914 129.283 76.163 31.987 21.834 62.429 45.249 88.329 71.733 13.359 12.51 25.685 28.472 21.204 45.559-15.206-4.77-30.926-8.58-45.314-14.762-5.785-2.517-12.086-4.123-18.568-4.889-.94 9.993 7.663 17.879 14.115 25.74 46.92 54.379 95.868 107.606 146.087 160.095 6.452 6.734 13.57 13.158 18.537 20.731-3.181-61.544-9.117-123.019-13.329-184.536l-21.536-284.981c-1.302-14.188-.423-28.831-7.632-42.18-3.483-5.321 1.667-10.186 4.514-14.787 17.235-26.363 33.895-52.988 50.251-79.736.788-1.87 4.574-6.686 5.725-2.06 30.987 63.725 55.099 129.537 72.909 196.328 5.482 15.985-1.272 32.282-3.301 48.267-11.571-18.094-24.687-35.518-37.53-53.061 16.448 166.827 25.989 334.062 38.318 501.076 8.329 11.073 21.113 19.844 31.291 29.959 98.29 89.683 200.341 176.697 302.326 263.719l229.142-198.463c3.331-2.445 5.603-5.439 4.423-9.155l-69.395-623.017c-2.938-20.994-2.151-42.611-12.116-62.551l58.491-95.987c10.299 16.943 17.387 35.039 25.505 52.726 19.082 44.073 35.592 88.867 48.645 134.279 2.726 10.233 7.209 20.563 5.421 31.155l-4.332 28.687-37.56-50.952 52.916 533.051 238.629-201.028c8.785-7.909 18.78-14.979 26.868-23.367-38.923-41.389-75.243-84.264-111.472-127.139-12.6-14.116-22.385-29.598-34.409-44.002-25.323-31.06-51.19-62.479-85.966-87.526-3.029-40.358-4.666-80.815-6.847-121.243l243.991 170.352c7.604 5.393 13.661 12.007 17.901 19.388l-20.447-189.499c-.818-5.8-.575-11.839-3.635-17.256-2.029-5.56-7.635-11.504-3.09-17.184l55.069-92.171c32.502 60.873 57.824 124.098 77.879 188.227 2.06 9.011 7.027 17.855 5.512 27.153-1.484 10.257-2.363 20.563-3.846 30.821l-34.32-45.32c-1.968-2.397-3.817-4.794-5.482-7.238 10.358 72.258 17.204 144.799 25.292 217.229 59.823-50.233 121.255-99.242 183.138-147.916 27.564-20.635 56.158-40.43 82.567-62.024l-6.695-84.146c-.515-8.891-10.844-17.855-3.605-26.363 19.537-29.381 38.044-59.22 56.279-89.151 21.358 38.828 35.776 79.861 51.225 120.337m-356.337 352.013c.94 11.336 2.15 22.671 3.453 33.983 19.446 19.005 39.196 37.843 59.732 56.129 78.301 69.935 159.298 137.921 238.748 207.02l-38.318-512.702c-89.625 70.509-177.532 142.359-263.616 215.571m-169.111-155.015c25.11 31.06 51.251 61.664 79.116 91.217-2.242-27.394-5.603-54.762-8.633-82.107-1.515 2.421-3.151 4.842-4.423 7.309-18.932-10.927-42.043-19.507-66.063-16.417m-160.965 442.076c-16.235 15.122-34.318 29.07-49.585 44.792 3.605 48.459 11.419 96.795 16.235 145.234 2.363 80.068-14.449 165.051-76.665 230.576 1.788-10.425.94-20.97 1.092-31.467-.091-35.925 1.823-71.85 1.607-107.799-.207-34.442.577-32.079-1.122-103.32-.709-29.746-5.353-53.339-8.39-74.269-21.718 18.166-42.405 37.099-64.064 55.314-42.619 37.674-87.929 73.336-131.608 110.218 44.374 37.819 72.212 87.595 79.39 138.813 7.239 54.474-9.904 112.402-55.097 154.752-39.862 37.124-97.045 60.562-156.447 71.345-27.867 4.888-57.642 8.245-85.3.863 3.453 22.863 7.784 45.655 13.57 68.231 9.935 38.057 22.868 76.474 48.526 110.004 13.721 17.135 32.532 33.744 58.4 38.777 27.655 5.321 55.793-5.656 75.243-20.707 17.326-12.294 25.353-30.125 32.654-47.093 21.96-49.968 29.381-103.652 58.43-151.704 20.386-38.13 46.284-75.133 83.663-104.516 19.385-15.961 41.679-29.574 65.033-41.701 16.085-7.622 35.561-13.973 54.491-9.514 18.023 4.195 30.169 16.777 38.498 29.453 18.962 28.544 23.899 61.186 39.255 90.858 11.239 24.517 26.14 49.418 52.614 65.954 26.746 16.706 62.005 21.833 95.357 20.707 58.218-1.965 153.959-39.506 158.81-50.113 5.036-11-8.26-94.321-13.448-141.426l-74.362-690.485c-.848-6.327-8.027-10.616-11.571-15.985-83.212 70.336-163.875 142.525-245.198 214.209m-379.354 330.178c-17.417 15.914-33.864 32.521-50.251 49.106-31.169 33.265-62.366 66.913-85.448 104.205-5.816 9.466-11.118 21.282-4.423 31.347 7.906 10.306 24.809 11.839 38.68 11.863 61.247-1.942 118.374-23.631 168.111-50.712 16.63-6.495 32.259-20.873 25.989-36.476-8.24-20.97-23.838-39.472-39.105-57.614-15.842-17.831-32.532-35.254-50.312-51.91l-3.242.192z"/></svg>